<?xml version="1.0" encoding="utf-8"?>
<!-- Generator: Adobe Illustrator 21.1.0, SVG Export Plug-In . SVG Version: 6.00 Build 0)  -->
<svg version="1.1" id="Layer_1" xmlns="http://www.w3.org/2000/svg" xmlns:xlink="http://www.w3.org/1999/xlink" x="0px" y="0px"
	 viewBox="0 0 512 512" style="enable-background:new 0 0 512 512;" xml:space="preserve">
<style type="text/css">
	.st0{fill:#0A0A0A;}
	.st1{fill:#FFFFFF;}
	.st2{fill:#FF5CF0;}
</style>
<g>
	<path class="st0" d="M277,468.6C277,384,241,340,241,340v-84.4c0-29.6,18.7-54.8,45-64.5c-7.4-2.7-15.3-4.2-23.6-4.2h-12.7
		c-37.9,0-68.6,30.7-68.6,68.6V340c0,0,36,44,36,128.6c0,13.3,12.2,23.4,25.5,23.4h26.9c6.1,0,12-2.1,16.5-5.7
		C280.6,482,277,475.8,277,468.6z"/>
	<path class="st1" d="M269.5,512h-26.9c-25.1,0-45.5-19.5-45.5-43.4c0-75.3-31.2-115.5-31.5-115.9c-2.9-3.6-4.5-8.1-4.5-12.7v-84.4
		c0-48.9,39.8-88.6,88.6-88.6h12.7c48.9,0,88.6,39.8,88.6,88.6V340c0,4.7-1.5,9-4.5,12.6c-1.3,1.6-31.5,41.7-31.5,116
		C315,492.5,294.6,512,269.5,512L269.5,512z M201,333.6c10.6,15.9,36,61.7,36,135c0,1.3,2.5,3.4,5.5,3.4h26.9c3,0,5.5-2.1,5.5-3.4
		c0-73.3,25.4-119.1,36-135v-78c0-26.8-21.8-48.6-48.6-48.6h-12.7c-26.8,0-48.6,21.8-48.6,48.6L201,333.6z M331,340L331,340L331,340
		z M255,136c-37.5,0-68-30.5-68-68s30.5-68,68-68s68,30.5,68,68S292.5,136,255,136z M255,40c-15.4,0-28,12.6-28,28s12.6,28,28,28
		s28-12.6,28-28S270.4,40,255,40z"/>
	<path class="st2" d="M434,349c-5.1,0-10.3-2-14.2-5.9c-7.8-7.8-7.8-20.5,0-28.3l46.3-46.2c3.8-3.8,5.8-8.7,5.8-14
		c0-5.3-2.1-10.2-5.8-14L420,195.3c-7.9-7.7-8-20.4-0.3-28.3s20.4-8,28.3-0.3l46.3,45.5c0,0,0.1,0.1,0.1,0.1
		c11.3,11.3,17.6,26.4,17.6,42.4c0,16-6.2,31-17.6,42.3l-46.3,46.2C444.2,347.1,439.1,349,434,349L434,349z M92.2,343.1
		c7.8-7.8,7.8-20.5,0-28.3l-46.3-46.2c-3.8-3.7-5.8-8.7-5.8-14c0-5.3,2.1-10.2,5.8-14L92,195.3c7.9-7.7,8-20.4,0.3-28.3
		c-7.7-7.9-20.4-8-28.3-0.3l-46.3,45.5c0,0-0.1,0.1-0.1,0.1C6.2,223.6,0,238.6,0,254.6s6.2,31,17.6,42.3l46.3,46.2
		c3.9,3.9,9,5.8,14.1,5.8C83.1,349,88.3,347,92.2,343.1z"/>
</g>
</svg>
